<?xml version="1.0" standalone="no"?>
<!DOCTYPE svg PUBLIC "-//W3C//DTD SVG 20010904//EN"
 "http://www.w3.org/TR/2001/REC-SVG-20010904/DTD/svg10.dtd">
<svg version="1.0" xmlns="http://www.w3.org/2000/svg"
 width="700.000000pt" height="700.000000pt" viewBox="0 0 700.000000 700.000000"
 preserveAspectRatio="xMidYMid meet">
<metadata>
Created by potrace 1.11, written by Peter Selinger 2001-2013
</metadata>
<g transform="translate(0.000000,700.000000) scale(0.100000,-0.100000)"
fill="#000000" stroke="none">
<path d="M0 3500 l0 -3500 3500 0 3500 0 0 3500 0 3500 -3500 0 -3500 0 0
-3500z m4498 2729 c312 -34 577 -158 801 -374 213 -205 349 -444 413 -723 22
-96 22 -104 26 -1172 2 -761 0 -1103 -8 -1170 -39 -322 -168 -587 -401 -819
-252 -253 -541 -385 -899 -411 -69 -5 -493 -10 -942 -10 l-818 0 0 110 0 109
938 4 c915 3 939 4 1012 24 175 49 285 101 411 194 266 198 438 478 485 792
12 83 14 265 11 1160 -3 979 -4 1068 -21 1137 -56 233 -156 417 -321 583 -112
114 -199 177 -330 242 -132 66 -244 99 -383 114 -137 15 -1805 15 -1940 0
-247 -27 -447 -114 -634 -276 -209 -181 -340 -395 -404 -663 -17 -71 -18 -191
-21 -2197 l-3 -2123 -105 0 -105 0 3 2138 3 2137 22 97 c74 321 244 591 505
801 210 168 440 267 692 295 117 14 1893 15 2013 1z m6 -444 c383 -67 694
-359 792 -745 18 -72 19 -126 19 -1160 l0 -1085 -23 -79 c-50 -173 -125 -305
-242 -430 -143 -151 -298 -241 -510 -293 -57 -14 -179 -17 -967 -20 l-903 -4
0 105 0 105 888 3 c879 4 888 4 966 26 99 28 167 59 246 112 155 106 273 275
321 461 12 44 14 241 14 1114 l0 1060 -23 75 c-86 272 -295 470 -572 541 -45
12 -224 14 -1015 14 -898 0 -964 -1 -1025 -18 -264 -74 -477 -288 -553 -554
l-22 -78 -3 -2087 -2 -2088 -105 0 -105 0 3 2103 2 2102 22 82 c103 381 411
670 786 738 56 10 285 13 998 14 786 1 940 -1 1013 -14z m-29 -400 c104 -27
165 -63 251 -149 92 -92 144 -186 164 -296 16 -82 4 -2027 -12 -2105 -38 -189
-212 -370 -403 -420 -51 -13 -181 -15 -937 -15 l-878 0 0 105 0 105 883 2 882
3 49 25 c77 39 132 94 168 168 l33 67 8 820 c4 451 6 910 5 1020 l-3 200 -31
65 c-49 101 -120 163 -229 197 -62 20 -1792 18 -1856 -1 -97 -30 -181 -105
-228 -205 l-26 -56 -3 -2077 -2 -2078 -105 0 -105 0 0 2063 c0 1429 3 2082 11
2123 35 195 214 385 412 439 81 22 1867 22 1952 0z"/>
</g>
</svg>
